<?xml version="1.0" encoding="UTF-8"?>
<svg version="1.1" xmlns="http://www.w3.org/2000/svg" width="591" height="591">
<path d="M0 0 C195.03 0 390.06 0 591 0 C591 195.03 591 390.06 591 591 C395.97 591 200.94 591 0 591 C0 395.97 0 200.94 0 0 Z " fill="#68217A" transform="translate(0,0)"/>
<path d="M0 0 C2.69087909 2.37493155 4.83394747 4.73406303 6.9609375 7.61328125 C4.3209375 10.25328125 1.6809375 12.89328125 -1.0390625 15.61328125 C-4.8035094 13.7310578 -7.78816444 11.52960179 -11.0390625 8.92578125 C-33.03778722 -8.22796783 -60.20654506 -16.06738889 -88.0390625 -13.38671875 C-111.5305338 -10.13294109 -130.89384665 -0.79511541 -148.0390625 15.61328125 C-148.78800781 16.28746094 -149.53695312 16.96164063 -150.30859375 17.65625 C-161.39792593 28.00758809 -169.03220579 41.39244114 -174.0390625 55.61328125 C-174.26352051 56.24379395 -174.48797852 56.87430664 -174.71923828 57.52392578 C-178.34886905 68.39610451 -178.42544126 79.57869728 -178.4765625 90.92578125 C-178.48291718 91.65303406 -178.48927185 92.38028687 -178.49581909 93.12957764 C-178.54742105 102.63747296 -177.65982107 111.41677177 -175.0390625 120.61328125 C-174.84046631 121.34071533 -174.64187012 122.06814941 -174.43725586 122.81762695 C-166.92538221 149.15853778 -149.2293908 170.15202837 -125.6328125 183.546875 C-102.2846016 195.77313408 -74.34088706 200.35540992 -48.6875 192.80859375 C-47.48351562 192.41414062 -46.27953125 192.0196875 -45.0390625 191.61328125 C-43.89695312 191.23945313 -42.75484375 190.865625 -41.578125 190.48046875 C-27.45280558 185.41414278 -13.43387228 177.65328612 -3.0390625 166.61328125 C0.78886618 168.17280775 3.32453614 170.44959961 5.9609375 173.61328125 C5.81139212 176.41438121 5.02246811 177.54317121 3.16796875 179.65625 C-12.55677634 193.73925988 -30.6064825 202.60967175 -51.0390625 207.61328125 C-51.78236816 207.80164551 -52.52567383 207.99000977 -53.29150391 208.18408203 C-60.4570709 209.82713269 -67.46078485 209.9219785 -74.7890625 209.86328125 C-76.03824463 209.85433838 -77.28742676 209.84539551 -78.57446289 209.83618164 C-110.84065725 209.42903058 -138.67872429 196.92618258 -161.56884766 174.14941406 C-174.9010953 160.21940706 -183.25734776 143.86476874 -189.0390625 125.61328125 C-189.2664209 124.91315918 -189.4937793 124.21303711 -189.72802734 123.49169922 C-198.52970744 95.24649214 -193.92196838 61.56292826 -180.90283203 35.32324219 C-176.73377811 27.56312899 -171.75626293 20.31448786 -166.0390625 13.61328125 C-165.37519531 12.81664062 -164.71132812 12.02 -164.02734375 11.19921875 C-122.06874151 -37.4637203 -48.60834723 -39.09755065 0 0 Z " fill="#FCFAFC" transform="translate(305.0390625,235.38671875)"/>
<path d="M0 0 C11.31133845 9.2173386 15.66711427 22.16894544 17.42578125 36.23828125 C17.42578125 41.84828125 17.42578125 47.45828125 17.42578125 53.23828125 C-8.64421875 53.23828125 -34.71421875 53.23828125 -61.57421875 53.23828125 C-59.66773503 68.49015099 -58.06516359 79.97380474 -45.77734375 89.75390625 C-37.07516265 95.61707791 -26.80633202 96.36466335 -16.57421875 95.23828125 C-7.42151434 93.41444565 0.70087169 89.37737898 8.42578125 84.23828125 C9.08578125 83.90828125 9.74578125 83.57828125 10.42578125 83.23828125 C11.62976804 95.5958679 11.62976804 95.5958679 9.03125 99.140625 C6.87959352 100.51225123 4.83108496 101.384664 2.42578125 102.23828125 C1.54664063 102.60050781 0.6675 102.96273437 -0.23828125 103.3359375 C-14.99622634 109.13518634 -31.62974212 110.98827531 -46.78125 105.49609375 C-51.14137484 103.53251305 -54.86667661 101.25374886 -58.57421875 98.23828125 C-59.60482422 97.42810547 -59.60482422 97.42810547 -60.65625 96.6015625 C-70.62245146 87.81682278 -75.90418414 72.72729403 -76.73388672 59.73876953 C-77.58457664 39.88345489 -74.83691428 23.04710645 -61.63671875 7.421875 C-46.16319462 -8.96013255 -18.86883007 -12.9132661 0 0 Z " fill="#FBF9FB" transform="translate(454.57421875,278.76171875)"/>
<path d="M0 0 C9.97362249 7.88612011 14.98154228 16.52934553 16.6875 29.125 C17.73678463 42.27020462 15.88726916 54.49036489 7.6875 65.125 C0.84311315 72.70365057 -6.0153855 76.88850174 -16.265625 77.5 C-28.70603701 77.92737206 -37.66860963 77.15376818 -47.5625 69.125 C-55.65521762 61.4146155 -59.11269635 52.32021875 -59.55078125 41.33203125 C-59.84871927 26.86533679 -58.70262963 16.02611961 -48.3125 5.125 C-35.40404868 -7.12708939 -15.30457523 -8.66296711 0 0 Z " fill="#40CAF3" transform="translate(249.3125,290.875)"/>
<path d="M0 0 C0 4.62 0 9.24 0 14 C-1.60875 13.505 -1.60875 13.505 -3.25 13 C-10.65068527 11.21859611 -18.14488736 10.34041625 -24.875 14.4375 C-34.24567013 21.76150752 -38.63062959 33.48212807 -40.29242325 45.03250122 C-40.72842983 49.75710984 -40.72227244 54.47987955 -40.70703125 59.21875 C-40.72019521 60.69805902 -40.73551349 62.17735025 -40.75285339 63.65661621 C-40.79216906 67.49027267 -40.80285858 71.32345347 -40.80688477 75.1572876 C-40.81631893 79.09328159 -40.85379447 83.02900756 -40.88867188 86.96484375 C-40.95270139 94.64328048 -40.98378543 102.32128614 -41 110 C-45.62 110 -50.24 110 -55 110 C-55 73.7 -55 37.4 -55 0 C-50.38 0 -45.76 0 -41 0 C-40.67 6.27 -40.34 12.54 -40 19 C-38.7315625 16.7415625 -38.7315625 16.7415625 -37.4375 14.4375 C-33.16951932 7.38735434 -28.47215189 1.78590326 -20.671875 -1.34765625 C-13.74364739 -3.0391972 -6.3907525 -3.19537625 0 0 Z " fill="#FAF9FB" transform="translate(367,274)"/>
<path d="M0 0 C7.30906538 4.89014392 11.41506321 11.51224387 13.87109375 19.7734375 C14.35971428 23.97557402 14.18359375 28.23048819 14.18359375 32.4609375 C-6.93640625 32.4609375 -28.05640625 32.4609375 -49.81640625 32.4609375 C-48.36725088 20.86769455 -44.93262242 11.16123415 -35.5390625 3.63671875 C-25.15499509 -3.49908798 -11.74242339 -5.58408667 0 0 Z " fill="#69227B" transform="translate(442.81640625,286.5390625)"/>
<path d="M0 0 C4.16636339 1.75913121 6.24086879 3.83363661 8 8 C8.53647806 13.63301965 8.16601282 17.13790888 5 22 C1.22816201 25.43638169 -1.64885698 25.50501159 -6.5859375 25.359375 C-10.00006597 24.85112287 -11.73556237 23.55662313 -14 21 C-15.65299494 16.04101517 -15.81530481 11.15680289 -15 6 C-11.42815887 0.08686057 -6.46481043 -0.93844022 0 0 Z " fill="#6A257C" transform="translate(423,149)"/>
<path d="M0 0 C2.7421875 1.87890625 2.7421875 1.87890625 5 5 C5.59990633 8.46119709 5.47324528 11.81319883 5.3125 15.3125 C5.28994141 16.24384766 5.26738281 17.17519531 5.24414062 18.13476562 C5.18542078 20.4248396 5.10336858 22.71157875 5 25 C4.01 25 3.02 25 2 25 C1.67 24.01 1.34 23.02 1 22 C0.67 22.495 0.34 22.99 0 23.5 C-2.61145419 25.45859064 -4.8523548 25.48346379 -8.05859375 25.34765625 C-10 25 -10 25 -12.5 23.375 C-14.45562482 20.27859404 -14.60024477 18.60146865 -14 15 C-11.76793569 12.15219381 -10.45007001 11.15002334 -7 10 C-5.43881572 9.93259135 -3.8749748 9.91485544 -2.3125 9.9375 C-1.10013672 9.95103516 -1.10013672 9.95103516 0.13671875 9.96484375 C1.05904297 9.98224609 1.05904297 9.98224609 2 10 C0.91215032 6.75016865 0.91215032 6.75016865 -1 4 C-4.66344611 3.86431681 -7.50615721 3.83538574 -11 5 C-10.625 3.0625 -10.625 3.0625 -10 1 C-6.84203893 -0.57898053 -3.39329364 -0.81928171 0 0 Z " fill="#F9F7FA" transform="translate(299,149)"/>
<path d="M0 0 C2.75329021 1.79562405 4.52627461 3.05254922 6 6 C6 8.31 6 10.62 6 13 C0.39 13 -5.22 13 -11 13 C-9.59628479 18.7018576 -9.59628479 18.7018576 -7 21 C-2.82016197 21.20225023 0.99047425 21.33650858 5 20 C4.6875 21.9375 4.6875 21.9375 4 24 C-0.37797573 25.45932524 -4.43415878 25.71977433 -9 25 C-12.85193609 22.22660601 -13.71065338 20.7650144 -14.46875 16.140625 C-14.7118424 11.25446778 -14.81237769 7.23031841 -11.625 3.3125 C-7.62193587 -0.21400888 -5.33709911 -0.45229654 0 0 Z " fill="#F1EBF3" transform="translate(364,149)"/>
<path d="M0 0 C1.90722656 0.27514648 1.90722656 0.27514648 4 1 C5.12684953 3.73112741 5.98163314 6.2330736 6.75 9.0625 C6.97042969 9.82111328 7.19085938 10.57972656 7.41796875 11.36132812 C7.96048899 13.23656113 8.48223106 15.11778259 9 17 C9.31453125 15.85660156 9.6290625 14.71320313 9.953125 13.53515625 C10.38452505 12.04401259 10.81686563 10.55314081 11.25 9.0625 C11.45496094 8.30775391 11.65992188 7.55300781 11.87109375 6.77539062 C12.515625 4.59765625 12.515625 4.59765625 14 1 C15.32 0.67 16.64 0.34 18 0 C20.475 8.415 20.475 8.415 23 17 C24.48408327 11.78462536 24.48408327 11.78462536 25.93066406 6.55883789 C26.515625 4.59765625 26.515625 4.59765625 28 1 C30.09277344 0.27514648 30.09277344 0.27514648 32 0 C30.18130658 8.54234789 27.92183803 16.76842586 25 25 C23.68 25 22.36 25 21 25 C20.32451422 22.94037148 19.65995688 20.87715678 19 18.8125 C18.62875 17.66394531 18.2575 16.51539063 17.875 15.33203125 C17.09369447 12.35679188 16.81636694 10.04716104 17 7 C16.34 7 15.68 7 15 7 C14.89042969 7.6290625 14.78085937 8.258125 14.66796875 8.90625 C13.61950734 14.56623682 12.17168983 19.6694886 10 25 C9.01 25 8.02 25 7 25 C4.80623444 20.14731516 3.13939486 15.40268898 1.8125 10.25 C1.54663086 9.26193359 1.54663086 9.26193359 1.27539062 8.25390625 C0.52908485 5.41275764 0 2.95113111 0 0 Z " fill="#ECE3EE" transform="translate(373,149)"/>
<path d="M0 0 C2.875 1.5 2.875 1.5 5 3 C5.515625 2.505 6.03125 2.01 6.5625 1.5 C9.9238388 -0.56851618 12.11959911 -0.48505011 16 0 C18.203125 1.35546875 18.203125 1.35546875 20 4 C20.49512355 7.59461227 20.37531449 11.13033908 20.25 14.75 C20.23195313 15.73355469 20.21390625 16.71710938 20.1953125 17.73046875 C20.14824126 20.15463783 20.08250742 22.57682059 20 25 C19.01 25 18.02 25 17 25 C16.67 18.07 16.34 11.14 16 4 C9.5277806 3.28996286 9.5277806 3.28996286 7.10546875 5.453125 C5.48784942 9.17993703 5.4293334 12.72425499 5.3125 16.75 C5.27833984 17.54277344 5.24417969 18.33554688 5.20898438 19.15234375 C5.12680896 21.10107504 5.06171955 23.05051362 5 25 C4.01 25 3.02 25 2 25 C1.98018066 24.43490723 1.96036133 23.86981445 1.93994141 23.28759766 C1.84481764 20.73292003 1.73508942 18.17907459 1.625 15.625 C1.5940625 14.73554688 1.563125 13.84609375 1.53125 12.9296875 C1.49257813 12.07890625 1.45390625 11.228125 1.4140625 10.3515625 C1.3826416 9.56604004 1.3512207 8.78051758 1.31884766 7.97119141 C1.1600535 5.76997061 1.1600535 5.76997061 -1 4 C-3.81097143 3.63961905 -5.34212051 3.49285373 -7.62817383 5.25512695 C-9.30332311 7.38580713 -9.41648526 8.54488438 -9.51171875 11.23046875 C-9.56489258 12.43413086 -9.56489258 12.43413086 -9.61914062 13.66210938 C-9.64169922 14.49548828 -9.66425781 15.32886719 -9.6875 16.1875 C-9.72166016 17.03248047 -9.75582031 17.87746094 -9.79101562 18.74804688 C-9.87341471 20.83156649 -9.93838645 22.91576216 -10 25 C-10.99 25 -11.98 25 -13 25 C-13 17.08 -13 9.16 -13 1 C-11.68 1.33 -10.36 1.66 -9 2 C-5.4913604 -0.33909307 -4.12910567 -0.41291057 0 0 Z " fill="#F9F6F9" transform="translate(324,149)"/>
<path d="M0 0 C5.61 0 11.22 0 17 0 C17 0.99 17 1.98 17 3 C12.71 3 8.42 3 4 3 C4 6.96 4 10.92 4 15 C7.96 15 11.92 15 16 15 C16 15.99 16 16.98 16 18 C11.71 18 7.42 18 3 18 C3 22.29 3 26.58 3 31 C7.62 31 12.24 31 17 31 C17 31.99 17 32.98 17 34 C11.39 34 5.78 34 0 34 C0 22.78 0 11.56 0 0 Z " fill="#F7F4F8" transform="translate(121,140)"/>
<path d="M0 0 C5.61 0 11.22 0 17 0 C17 0.99 17 1.98 17 3 C12.71 3 8.42 3 4 3 C4 6.96 4 10.92 4 15 C7.96 15 11.92 15 16 15 C16 16.32 16 17.64 16 19 C12.04 19 8.08 19 4 19 C4 23.95 4 28.9 4 34 C2.68 34 1.36 34 0 34 C0 22.78 0 11.56 0 0 Z " fill="#ECE2EE" transform="translate(248,140)"/>
<path d="M0 0 C4.16636339 1.75913121 6.24086879 3.83363661 8 8 C8.53647806 13.63301965 8.16601282 17.13790888 5 22 C1.22816201 25.43638169 -1.64885698 25.50501159 -6.5859375 25.359375 C-10.00006597 24.85112287 -11.73556237 23.55662313 -14 21 C-15.65299494 16.04101517 -15.81530481 11.15680289 -15 6 C-11.42815887 0.08686057 -6.46481043 -0.93844022 0 0 Z M-10.4375 5 C-12.43513042 8.83545041 -12.73699941 11.75796851 -12 16 C-10.84367254 18.36293002 -9.85016245 20.14983755 -8 22 C-2.52393127 22.48140636 -2.52393127 22.48140636 2.5 20.6875 C4.94794561 16.30159745 4.84561413 11.8882431 4 7 C1.33088511 3.52206242 -0.26425219 3.11617071 -4.5625 2.4375 C-8.06980525 2.71661832 -8.06980525 2.71661832 -10.4375 5 Z " fill="#F1EBF3" transform="translate(423,149)"/>
<path d="M0 0 C0.99 0 1.98 0 3 0 C3.33 6.93 3.66 13.86 4 21 C10.50970966 14.94789465 10.50970966 14.94789465 13 11 C14.32 11 15.64 11 17 11 C15.59155282 14.21524305 13.89655214 16.32183868 11.375 18.75 C10.74335938 19.36359375 10.11171875 19.9771875 9.4609375 20.609375 C8.97882813 21.06828125 8.49671875 21.5271875 8 22 C9.46976464 25.45007911 11.40918519 27.56493084 14.125 30.125 C15.45394723 31.37827763 16.75547173 32.66285567 18 34 C18 34.66 18 35.32 18 36 C13.31808451 35.54261927 11.36895826 33.80889606 8.1875 30.4375 C7.39730469 29.61121094 6.60710937 28.78492188 5.79296875 27.93359375 C5.20128906 27.29550781 4.60960937 26.65742188 4 26 C3.67 29.3 3.34 32.6 3 36 C2.01 36 1.02 36 0 36 C0 24.12 0 12.24 0 0 Z " fill="#F9F7FA" transform="translate(453,138)"/>
<path d="M0 0 C1.89355469 0.26147461 1.89355469 0.26147461 4 1 C5.00488281 2.67407227 5.00488281 2.67407227 5.703125 4.81640625 C5.9609375 5.58017578 6.21875 6.34394531 6.484375 7.13085938 C6.73703125 7.93330078 6.9896875 8.73574219 7.25 9.5625 C7.518125 10.36880859 7.78625 11.17511719 8.0625 12.00585938 C8.72298564 13.99911067 9.36341102 15.99898864 10 18 C12.16575619 14.75136571 13.62352411 11.39377143 15.125 7.8125 C15.40214844 7.15830078 15.67929688 6.50410156 15.96484375 5.83007812 C16.64597045 4.22120988 17.32335403 2.61075785 18 1 C18.99 1 19.98 1 21 1 C20.01310538 6.90221799 17.68234514 12.2258553 15.44458008 17.74804688 C14.68879201 19.62179686 13.95075112 21.50194348 13.21289062 23.3828125 C12.73400391 24.56875 12.25511719 25.7546875 11.76171875 26.9765625 C11.32819092 28.06018066 10.89466309 29.14379883 10.44799805 30.26025391 C8.92935594 33.13366508 7.80442071 34.40755204 5 36 C2.25 36.1875 2.25 36.1875 0 36 C0 35.01 0 34.02 0 33 C2.97 32.505 2.97 32.505 6 32 C8.71025599 24.42281622 7.41646136 19.77247759 4.125 12.625 C3.35274656 10.86895175 2.58433403 9.1112079 1.8203125 7.3515625 C1.47242676 6.58666504 1.12454102 5.82176758 0.76611328 5.03369141 C0 3 0 3 0 0 Z " fill="#F1EAF2" transform="translate(209,149)"/>
<path d="M0 0 C2.70703125 1.8828125 2.70703125 1.8828125 5 5 C5.60317349 8.46048612 5.47323397 11.81344517 5.3125 15.3125 C5.28994141 16.24384766 5.26738281 17.17519531 5.24414062 18.13476562 C5.18542078 20.4248396 5.10336858 22.71157875 5 25 C4.01 25 3.02 25 2 25 C1.95101562 23.73542969 1.90203125 22.47085938 1.8515625 21.16796875 C1.7765262 19.50779053 1.70097873 17.84763536 1.625 16.1875 C1.5940625 15.35412109 1.563125 14.52074219 1.53125 13.66210938 C1.49257812 12.85966797 1.45390625 12.05722656 1.4140625 11.23046875 C1.3826416 10.49207764 1.3512207 9.75368652 1.31884766 8.99291992 C1.09165386 6.68650412 1.09165386 6.68650412 -1 4 C-5.10112712 3.46151276 -5.10112712 3.46151276 -8.65942383 5.2590332 C-10.29764493 7.38654271 -10.4172995 8.5678458 -10.51171875 11.23046875 C-10.56489258 12.43413086 -10.56489258 12.43413086 -10.61914062 13.66210938 C-10.64169922 14.49548828 -10.66425781 15.32886719 -10.6875 16.1875 C-10.72166016 17.03248047 -10.75582031 17.87746094 -10.79101562 18.74804688 C-10.87341471 20.83156649 -10.93838645 22.91576216 -11 25 C-11.99 25 -12.98 25 -14 25 C-14 17.08 -14 9.16 -14 1 C-12.68 1.33 -11.36 1.66 -10 2 C-6.24952518 -0.50031654 -4.44143734 -0.53603554 0 0 Z " fill="#F9F7FA" transform="translate(159,149)"/>
<path d="M0 0 C0.99 0 1.98 0 3 0 C3 1.98 3 3.96 3 6 C4.98 6 6.96 6 9 6 C9 7.32 9 8.64 9 10 C7.35 10 5.7 10 4 10 C4 15.94 4 21.88 4 28 C5.65 28 7.3 28 9 28 C9 28.99 9 29.98 9 31 C3.49461207 31.36702586 3.49461207 31.36702586 1.3190918 29.75268555 C-0.31737393 27.57830326 -0.35034179 26.46606412 -0.29296875 23.76953125 C-0.28330078 22.96708984 -0.27363281 22.16464844 -0.26367188 21.33789062 C-0.23853516 20.50451172 -0.21339844 19.67113281 -0.1875 18.8125 C-0.17396484 17.96751953 -0.16042969 17.12253906 -0.14648438 16.25195312 C-0.11115799 14.16769616 -0.05735139 12.08376723 0 10 C-1.32 10 -2.64 10 -4 10 C-4 8.68 -4 7.36 -4 6 C-2.68 6 -1.36 6 0 6 C0 4.02 0 2.04 0 0 Z " fill="#E6DBE9" transform="translate(172,143)"/>
<path d="M0 0 C0.99 0 1.98 0 3 0 C3 2.31 3 4.62 3 7 C5.31 7 7.62 7 10 7 C10 7.66 10 8.32 10 9 C7.69 9 5.38 9 3 9 C3.33 15.27 3.66 21.54 4 28 C5.65 28 7.3 28 9 28 C9 28.99 9 29.98 9 31 C6.1875 31.25 6.1875 31.25 3 31 C0.95285346 29.21822431 0.09602214 27.78532748 -0.23510742 25.07714844 C-0.29552608 22.79398596 -0.26131863 20.53269914 -0.1875 18.25 C-0.17396484 17.45722656 -0.16042969 16.66445312 -0.14648438 15.84765625 C-0.11125223 13.89814436 -0.05744821 11.94898374 0 10 C-1.32 10 -2.64 10 -4 10 C-4 8.68 -4 7.36 -4 6 C-2.68 6 -1.36 6 0 6 C0 4.02 0 2.04 0 0 Z " fill="#F7F3F8" transform="translate(198,143)"/>
<path d="M0 0 C0 1.32 0 2.64 0 4 C-1.1446875 3.87625 -1.1446875 3.87625 -2.3125 3.75 C-5.02976507 3.73217111 -5.02976507 3.73217111 -6.625 5.46875 C-8.62643321 9.1532066 -8.56751256 12.61557575 -8.6875 16.75 C-8.72166016 17.54277344 -8.75582031 18.33554688 -8.79101562 19.15234375 C-8.87319104 21.10107504 -8.93828045 23.05051362 -9 25 C-9.99 25 -10.98 25 -12 25 C-12 17.08 -12 9.16 -12 1 C-10.68 1.33 -9.36 1.66 -8 2 C-4.77208445 -0.1519437 -3.71599191 -0.20086443 0 0 Z " fill="#F6F3F7" transform="translate(449,149)"/>
<path d="M0 0 C0 1.32 0 2.64 0 4 C-1.1446875 3.87625 -1.1446875 3.87625 -2.3125 3.75 C-5.02976507 3.73217111 -5.02976507 3.73217111 -6.625 5.46875 C-8.62643321 9.1532066 -8.56751256 12.61557575 -8.6875 16.75 C-8.72166016 17.54277344 -8.75582031 18.33554688 -8.79101562 19.15234375 C-8.87319104 21.10107504 -8.93828045 23.05051362 -9 25 C-9.99 25 -10.98 25 -12 25 C-12 17.08 -12 9.16 -12 1 C-10.68 1.33 -9.36 1.66 -8 2 C-4.77208445 -0.1519437 -3.71599191 -0.20086443 0 0 Z " fill="#F6F2F7" transform="translate(283,149)"/>
<path d="M0 0 C1.32 0 2.64 0 4 0 C4 8.25 4 16.5 4 25 C2.68 25 1.36 25 0 25 C0 16.75 0 8.5 0 0 Z " fill="#DFD0E3" transform="translate(186,149)"/>
<path d="M0 0 C-0.59859155 6.34507042 -0.59859155 6.34507042 -2.1875 8.9375 C-4.87078033 10.51045744 -6.95639252 10.32378803 -10 10 C-12 8 -12 8 -12.3125 5.5 C-12.209375 4.675 -12.10625 3.85 -12 3 C-8.06769671 0.37846447 -4.67664739 0 0 0 Z " fill="#712E82" transform="translate(301,161)"/>
<path d="M0 0 C-0.33 0.99 -0.66 1.98 -1 3 C-4.0625 4.1875 -4.0625 4.1875 -7 5 C-7 6.65 -7 8.3 -7 10 C-4.525 10.99 -4.525 10.99 -2 12 C-2 12.66 -2 13.32 -2 14 C-1.34 14.33 -0.68 14.66 0 15 C-7.25581395 15.48372093 -7.25581395 15.48372093 -10.5 13.375 C-12.45562482 10.27859404 -12.60024477 8.60146865 -12 5 C-8.53863318 0.58377337 -5.44812911 -0.14724673 0 0 Z " fill="#EDE5EF" transform="translate(297,159)"/>
<path d="M0 0 C3.0625 0.3125 3.0625 0.3125 4.875 1.5625 C6.0625 3.3125 6.0625 3.3125 7.0625 7.3125 C2.4425 7.3125 -2.1775 7.3125 -6.9375 7.3125 C-4.19083333 0.44583333 -4.19083333 0.44583333 0 0 Z " fill="#6D287E" transform="translate(359.9375,151.6875)"/>
<path d="M0 0 C0.33 0.66 0.66 1.32 1 2 C1.59296875 2.28875 2.1859375 2.5775 2.796875 2.875 C5.44058386 4.22497899 7.16218069 5.89671536 9.25 8 C9.95640625 8.70125 10.6628125 9.4025 11.390625 10.125 C13 12 13 12 13 14 C8.42803613 13.52002515 6.33861563 11.90638385 3.125 8.6875 C1.92230469 7.51767578 1.92230469 7.51767578 0.6953125 6.32421875 C-1 4 -1 4 -0.7578125 1.70703125 C-0.50773437 1.14371094 -0.25765625 0.58039063 0 0 Z " fill="#EEE6F0" transform="translate(458,160)"/>
<path d="M0 0 C0 1.32 0 2.64 0 4 C-1.1446875 3.938125 -1.1446875 3.938125 -2.3125 3.875 C-5.22718416 3.77919176 -5.22718416 3.77919176 -8 6 C-8.66 5.67 -9.32 5.34 -10 5 C-9.67 3.68 -9.34 2.36 -9 1 C-8.34 1 -7.68 1 -7 1 C-4.53721199 -0.231394 -2.7204945 -0.07159196 0 0 Z " fill="#E4D8E7" transform="translate(449,149)"/>
<path d="M0 0 C0 1.32 0 2.64 0 4 C-1.1446875 3.938125 -1.1446875 3.938125 -2.3125 3.875 C-5.22718416 3.77919176 -5.22718416 3.77919176 -8 6 C-8.66 5.67 -9.32 5.34 -10 5 C-9.67 3.68 -9.34 2.36 -9 1 C-8.34 1 -7.68 1 -7 1 C-4.53721199 -0.231394 -2.7204945 -0.07159196 0 0 Z " fill="#E4D8E7" transform="translate(283,149)"/>
<path d="M0 0 C2 0.6875 2 0.6875 4 2.6875 C1.03 3.3475 -1.94 4.0075 -5 4.6875 C-4.67 3.3675 -4.34 2.0475 -4 0.6875 C-2 -0.3125 -2 -0.3125 0 0 Z " fill="#F0E8F1" transform="translate(293,149.3125)"/>
<path d="M0 0 C-0.33 2.31 -0.66 4.62 -1 7 C-1.99 6.67 -2.98 6.34 -4 6 C-3.625 3.5625 -3.625 3.5625 -3 1 C-1 0 -1 0 0 0 Z " fill="#E6DBE9" transform="translate(387,159)"/>
</svg>
